<svg width="19" height="25" viewBox="0 0 19 25" fill="none" xmlns="http://www.w3.org/2000/svg">
<g clip-path="url(#clip0_2_12)">
<path d="M7.44178 0H11.5582C11.7526 0 11.9068 0.155996 11.9068 0.352686V2.40776C11.9068 2.42811 11.9068 2.45524 11.9001 2.47558H7.09315C7.08645 2.45524 7.08645 2.43489 7.08645 2.40776V0.352686C7.09315 0.155996 7.24735 0 7.44178 0Z" fill="#09162F"/>
<path d="M1.68278 4.81552H0.0268172H0V2.25854H17.5653H19V4.81552C18.4502 4.81552 18.115 4.81552 17.5653 4.81552H17.3172H1.68278Z" fill="#09162F"/>
<path d="M17.3172 5.69043V22.5108V24.4506V25H16.7741H2.22579H1.68274V24.4506V22.5176V5.69721H17.3172V5.69043ZM13.5829 8.68148C13.5829 8.48479 13.4287 8.32879 13.2343 8.32879C13.0398 8.32879 12.8856 8.48479 12.8856 8.68148V20.2523C12.8856 20.449 13.0398 20.605 13.2343 20.605C13.4287 20.605 13.5829 20.449 13.5829 20.2523V8.68148ZM9.85529 8.68148C9.85529 8.48479 9.70109 8.32879 9.50666 8.32879C9.31224 8.32879 9.15804 8.48479 9.15804 8.68148V20.2523C9.15804 20.449 9.31224 20.605 9.50666 20.605C9.70109 20.605 9.85529 20.449 9.85529 20.2523V8.68148ZM6.12099 8.68148C6.12099 8.48479 5.96679 8.32879 5.77237 8.32879C5.57794 8.32879 5.42374 8.48479 5.42374 8.68148V20.2523C5.42374 20.449 5.57794 20.605 5.77237 20.605C5.96679 20.605 6.12099 20.449 6.12099 20.2523V8.68148Z" fill="#09162F"/>
</g>
<path d="M7.44178 0H11.5582C11.7526 0 11.9068 0.155996 11.9068 0.352686V2.40776C11.9068 2.42811 11.9068 2.45524 11.9001 2.47558H7.09315C7.08645 2.45524 7.08645 2.43489 7.08645 2.40776V0.352686C7.09315 0.155996 7.24735 0 7.44178 0Z" fill="#09162F"/>
<path d="M1.68278 4.81552H0.0268172H0V2.25854H17.5653H19V4.81552C18.4502 4.81552 18.115 4.81552 17.5653 4.81552H17.3172H1.68278Z" fill="#09162F"/>
<path d="M17.3172 5.69044V22.5108V24.4506V25H16.7742H2.22583H1.68278V24.4506V22.5176V5.69723H17.3172V5.69044ZM13.5829 8.68149C13.5829 8.4848 13.4287 8.32881 13.2343 8.32881C13.0399 8.32881 12.8857 8.4848 12.8857 8.68149V20.2523C12.8857 20.449 13.0399 20.605 13.2343 20.605C13.4287 20.605 13.5829 20.449 13.5829 20.2523V8.68149ZM9.85533 8.68149C9.85533 8.4848 9.70113 8.32881 9.5067 8.32881C9.31228 8.32881 9.15808 8.4848 9.15808 8.68149V20.2523C9.15808 20.449 9.31228 20.605 9.5067 20.605C9.70113 20.605 9.85533 20.449 9.85533 20.2523V8.68149ZM6.12103 8.68149C6.12103 8.4848 5.96683 8.32881 5.7724 8.32881C5.57798 8.32881 5.42378 8.4848 5.42378 8.68149V20.2523C5.42378 20.449 5.57798 20.605 5.7724 20.605C5.96683 20.605 6.12103 20.449 6.12103 20.2523V8.68149Z" fill="#09162F"/>
<defs>
<clipPath id="clip0_2_12">
<rect width="19" height="25" fill="white"/>
</clipPath>
</defs>
</svg>
